<svg width="56" height="49" viewBox="0 0 56 49" fill="none" xmlns="http://www.w3.org/2000/svg">
<g clip-path="url(#clip0_76_31)">
<path d="M6 36.3019V48.5L26.4462 31.6774L19.0333 25.5783L6 36.3019Z" fill="white"/>
<path d="M30.2825 16.3226L37.6954 22.4217L50.7287 11.6981V-0.5L30.2825 16.3226ZM49.1002 10.9282L37.6954 20.3111L32.8449 16.3209L49.1002 2.9462V10.9265V10.9282Z" fill="white"/>
<path d="M28.3643 17.9009L6 -0.5V11.6981L20.9514 24L28.3643 30.0991L50.7286 48.5V36.3019L35.7773 24L28.3643 17.9009ZM47.5737 41.8185L30.8465 28.0554L23.4335 21.9564L9.15497 10.2085V6.17984L25.8822 19.9429L33.2951 26.0419L47.5737 37.7898V41.8168V41.8185Z" fill="white"/>
</g>
<defs>
<clipPath id="clip0_76_31">
<rect width="56" height="49" fill="white"/>
</clipPath>
</defs>
</svg>
